<svg xmlns="http://www.w3.org/2000/svg" viewBox="0 0 1000 601">
  <path fill="#006FCF" d="M94.6 76.325h810.8c52.3 0 94.6 42.3 94.6 94.6v333.75c0 52.3-42.3 94.6-94.6 94.6H94.6c-52.3 0-94.6-42.3-94.6-94.6V170.925c0-52.3 42.4-94.6 94.6-94.6z"/>
  <path fill="#FFF" d="M188.935 298.725l-36.6-89.7h-78.9v175.95h50.7v-128.7l43.2 96.9h42.3l43.2-97.2v129h50.7v-175.95h-78.75l-35.85 89.7zm236.25 86.25l68.4-175.95h-55.35l-42.75 114.75-43.2-114.75h-56.7l68.85 175.95h60.75zm114.75-70.65h93.6v-36h-93.6v-29.7h95.4v-39.6h-146.1v175.95h149.4v-39.6h-98.7v-31.05zm143.1-105.3l-66.15 175.95h52.65l12.15-33.3h76.95l12.15 33.3h54.45l-66.6-175.95h-75.6zm41.4 52.2l22.95 62.55h-46.8l23.85-62.55z"/>
  <path fill="#006FCF" d="M827.435 209.925v175.95h76.95c19.035 0 34.695-3.31 46.98-9.93 12.285-6.62 21.76-15.86 28.425-27.73 6.665-11.87 9.998-25.73 9.998-41.57 0-15.84-3.332-29.47-9.998-40.9-6.664-11.42-16.14-20.35-28.424-26.77-12.285-6.42-27.945-9.63-46.98-9.63h-76.95zm50.7 39.6h17.1c10.53 0 19.17 1.84 25.92 5.54 6.75 3.69 11.73 9.23 14.94 16.62 3.21 7.39 4.82 16.82 4.82 28.3 0 11.5-1.61 21.09-4.82 28.75-3.21 7.66-8.19 13.45-14.94 17.36-6.75 3.9-15.39 5.88-25.92 5.88h-17.1v-102.45z"/>
</svg>
