<svg xmlns="http://www.w3.org/2000/svg" viewBox="0 0 1000.046 786.08">
  <path fill="none" d="M2.17.55h995.7v785h-995.7z"/>
  <path d="M571.07 391.55c0-153.6 69.62-290.97 178.6-381.4A391.83 391.83 0 0 0 500 0 391.83 391.83 0 0 0 250.33 10.14c-108.99 90.43-178.6 227.8-178.6 381.4 0 153.6 69.61 290.97 178.6 381.4A391.83 391.83 0 0 0 500 783.07c99.16 0 190.64-36.74 250.33-110.14-108.98-90.42-179.26-227.8-179.26-381.39z" fill="#ff5f00"/>
  <path d="M928.33 500c0 99.14-36.88 189.97-96.88 258.98-60 69.02-140.63 110.14-250.33 110.14a391.83 391.83 0 0 1-249.67-89.92 404.24 404.24 0 0 0 34.76-30.48c108.98-90.43 178.6-227.8 178.6-381.4 0-153.6-69.62-290.97-178.6-381.4a404.24 404.24 0 0 0-34.76-30.48A391.83 391.83 0 0 1 581.12 0c109.7 0 190.34 41.12 250.33 110.14 60 69.01 96.88 159.84 96.88 258.98z" fill="#eb001b"/>
  <path d="M917.13 500c0 99.14-36.88 189.97-96.88 258.98-60 69.02-141.14 110.14-250.33 110.14-99.2 0-190.64-36.74-250.33-110.14a395.9 395.9 0 0 1-97.71-258.98c0-100.3 36.88-190.3 97.71-259.31C378.24 171.67 469.7 135.57 569.92 135.57c109.19 0 190.33 41.1 250.33 110.14 60 69.02 96.88 159.84 96.88 259.31z" fill="none" stroke="#00a2e5" stroke-width="1.5626"/>
</svg>
