<svg xmlns="http://www.w3.org/2000/svg" viewBox="0 0 1000 338">
  <rect width="1000" height="338" rx="30" ry="30" fill="#0C3175"/>
  <path d="M320 63h87.8c30.5 0 53.2 6.8 68.3 20.3 15 13.5 22.5 32.8 22.5 58 0 17.2-3.7 31.6-11 43.2-7.4 11.6-17.7 20.4-31 26.2-13.3 5.9-29 8.8-47.3 8.8H320V63zm49.7 41.6v73.3h27.7c15.7 0 27.1-2.9 34.5-8.8 7.3-5.9 11-15 11-27.5 0-13.3-3.9-23-11.7-29.2-7.8-6.2-19.8-9.3-35.9-9.3l-25.6 1.5zm131.8-41.6h49.7v98.3h58.7V63h49.7v156.5h-49.7v-59.7h-58.7v59.7h-49.7V63z" fill="#FFFFFF"/>
  <path d="M208.4 271.6c-3.4 2-7.9 2.9-13.5 2.9H166v-58.9h26.8c8 0 14 1.8 18 5.5 4 3.7 6 9 6 16.1 0 13.6-6.5 20.4-19.5 20.4h-10.8v-15.6h6.7c2.3 0 4-.4 5.2-1.3 1.1-.9 1.7-2.3 1.7-4.4 0-3.7-2.6-5.5-7.8-5.5h-9.4v33.6h9.8c6.8 0 10.1-2.3 10.1-7 0-2-.7-3.5-2.2-4.5-1.5-1-3.7-1.5-6.6-1.5v-15.2c6.6 0 11.7 1.5 15.4 4.6 3.6 3.1 5.4 7.6 5.4 13.6 0 9.4-2.4 15.4-7.4 18.2zm37.2-56h18.6v58.9h-18.6v-58.9zm77.1 0l22.2 58.9h-19.8l-3.4-10.8h-20.7l-3.4 10.8h-19.8l22.2-58.9h22.7zm-6.8 17.5l-6.7 18.3h13.3l-6.6-18.3zm96.3 41.4h-25.3l-18.6-30.6v30.6h-17.4v-58.9h25.1l18.7 30.6v-30.6h17.4v58.9zm38.6 0h-18.6v-58.9h28.7c7.4 0 13.1 1.5 17 4.4 3.9 2.9 5.9 7.3 5.9 13.1 0 3.9-.9 7.1-2.8 9.7-1.9 2.6-4.5 4.5-7.8 5.6 3.4.8 5.8 2.1 7.4 3.9 1.5 1.9 2.3 4.6 2.3 8.2v13.9h-18.2v-13.9c0-1.7-.4-2.9-1.2-3.7-.8-.8-2.2-1.2-4.1-1.2h-8.6v18.9zm0-32.3h7.8c2.2 0 3.8-.4 4.8-1.1 1-.7 1.5-1.9 1.5-3.5 0-3.3-2.1-5-6.2-5h-7.9v9.6zm58.3 14.8h25.5v17.5h-44.1v-58.9h18.6v41.4zm63.5 17.5h-18.6v-58.9h18.6v58.9zm67.7 0h-19.9l-11.2-22.1-11.2 22.1h-19.9l21.1-29.5-20.7-29.5h19.9l10.7 21.2 10.7-21.2h19.9l-20.7 29.5 21.3 29.5z" fill="#81BC02"/>
</svg>
