<svg xmlns="http://www.w3.org/2000/svg" viewBox="0 0 1000.008 323.404">
  <path fill="#00579F" d="M651.185 5.673h-138.16L376.73 317.649h138.163L651.185 5.673z"/>
  <path fill="#FAA61A" d="M352.719 5.673c-33.242 0-63.307 17.978-79.04 46.608L137.974 317.649h146.89l25.966-71.676 73.058-201.142-31.169 62.838z"/>
  <path fill="#00579F" d="M934.282 317.731V302.2h-25.576v-22.871h-31.15l-.114 22.871h-43.779v-10.208c-.028-2 .146-3 .545-4.006 1.14-2.006 3.978-3.007 8.243-3.007 3.41 0 6.818.142 10.228.711l2-24.021c-10.229-1.43-21.607-2.142-31.15-2.142-12.078 0-22.021 1.429-29.117 5.148-7.816 4.434-12.934 11.634-12.934 22.158 0 9.209 2.8 15.125 7.532 19.133-3.129 1.992-5.648 4.562-6.799 7-1.426 2.994-2 6.142-2 10.851.26.27.26.27.26.551-.26.284-.26.284-.26.569 0 8.205 2.286 14.346 7.531 18.489-3.98 3.704-6.545 8.992-6.545 16.629 0 8.57 3.98 15.625 10.786 20.275 6.532 4.562 16.345 6.846 29.137 6.846 15.06 0 27.856-1.712 38.927-4.705 10.358-2.705 16.914-10.207 16.914-21.701 0-8.707-3.979-14.631-9.628-17.768-5.535-3.135-12.788-4.42-21.466-4.42h-28.197c-3.551 0-5.951-.715-7.248-1.713-.971-.713-1.399-1.561-1.399-2.842 0-1.279.428-2.279 1.285-3.135 1.14-1.144 2.565-1.857 5.393-2.145 3.694.145 7.674.145 12.504.145h22.305c9.513 0 17.584-1.714 23.42-5.991 6.103-4.277 9.513-10.851 9.513-20.132 0-6.705-2.026-12.418-5.691-16.487h27.599v22.869h25.576v-15.487h12.791V243.88h-13.074c.283-.999.425-1.712.851-2.564l22.021-60.541h-33.521l-5.521 16.343h-6.811l-5.661-16.343h-33.664l-2.57 7.133c-2.997-4.131-9.528-8.419-19.471-8.419-8.384 0-17.613 1.425-32.674 5.846l-3.98 10.993-1.694-13.558H714.06l-.113 4.564c11.515 2.85 21.748 7.42 27.999 12.135-1.839 4.84-2.956 10.263-2.956 16.345 0 12.558 4.934 23.265 13.045 30.257 7.957 6.845 19.187 9.979 32.38 9.979 7.248 0 14.072-.426 21.873-2.138v2.993c0 4-.828 6.143-2.837 7.7-2.147 1.569-5.395 2.143-10.378 2.143-10.115 0-19.47-1.425-32.376-5.283l-5.11 26.443c12.908 2.707 24.564 4.277 38.774 4.277 14.783 0 26.02-2.566 33.833-8.279 6.247-4.564 9.798-10.994 9.798-22.271v-80.113h.001zm-96.793-29.018c0 3.137-.971 5.137-2.681 6.422-1.71 1.429-4.533 1.999-8.244 1.999-3.551 0-6.391-.57-8.104-1.999-1.71-1.285-2.538-3.285-2.538-6.422 0-3.133.828-5.132 2.538-6.417 1.713-1.429 4.553-1.999 8.104-1.999 3.711 0 6.534.57 8.244 1.999 1.71 1.285 2.681 3.284 2.681 6.417zm-132.356 0c0 3.137-.974 5.137-2.685 6.422-1.71 1.429-4.533 1.999-8.244 1.999-3.551 0-6.391-.57-8.104-1.999-1.71-1.285-2.538-3.285-2.538-6.422 0-3.133.828-5.132 2.538-6.417 1.713-1.429 4.553-1.999 8.104-1.999 3.711 0 6.534.57 8.244 1.999 1.712 1.285 2.685 3.284 2.685 6.417zm-11.367 53.695c-5.364 0-9.232-.998-11.637-2.564-2.399-1.572-3.372-3.855-3.372-7.133 0-2.999.973-5.138 2.826-6.563 1.856-1.427 4.549-1.997 8.257-1.997h21.757l.057 18.4c-5.238.142-11.493-.143-17.888-.143zm169.602-.999c0 1.999-.54 3.427-1.795 4.422-1.257.997-3.54 1.427-6.815 1.427-7.247 0-14.785-1.144-22.171-3.137l3.704-19.011c8.098 3.42 14.928 5.133 20.323 5.133 1.993 0 3.42-.285 4.265-.854.971-.713 1.399-1.573 1.399-3 0-1.284-.287-2.141-.97-2.854-.542-.715-1.425-1.285-2.964-1.857l-12.939-5.133c-5.945-2.28-9.923-5.276-12.086-8.563-2.111-3.425-3.126-7.849-3.126-13.985 0-8.705 3.268-15.123 9.529-19.402 6.249-4.278 14.92-6.418 25.977-6.418 5.662 0 11.382.426 17.186 1.285 5.801.856 12.076 2.28 18.915 4.135l-3.835 19.848c-6.959-2.283-12.923-4.135-18.006-5.135-5.11-.998-9.524-1.569-13.22-1.569-3.997 0-6.815.571-8.385 1.713-1.711 1.285-2.539 2.854-2.539 5.132 0 1.142.256 2.142.828 2.854.689.715 1.71 1.427 3.278 1.999l12.935 5.277c6.392 2.567 10.643 5.843 12.934 9.414 2.256 3.568 3.383 8.133 3.383 13.7zM101.33 52.281C78.028 20.796 41.788 0 0 0v323.404h84.3V86.21l90.3 231.439h78.556L137.974 52.281H101.33zm427.68 0c-23.302-31.485-59.542-52.281-101.33-52.281v323.404h84.3V86.21l90.3 231.439h78.556L645.554 52.281h-36.644z"/>
</svg>
