<svg id="visual" viewBox="0 0 960 100" width="960" height="100" xmlns="http://www.w3.org/2000/svg" xmlns:xlink="http://www.w3.org/1999/xlink" version="1.1"><rect x="0" y="0" width="960" height="100" fill="#ffffff"></rect><path d="M0 42L22.8 41.3C45.7 40.7 91.3 39.3 137 38.5C182.7 37.7 228.3 37.3 274 41.2C319.7 45 365.3 53 411.2 50.5C457 48 503 35 548.8 34.5C594.7 34 640.3 46 686 49.3C731.7 52.7 777.3 47.3 823 43.5C868.7 39.7 914.3 37.3 937.2 36.2L960 35L960 101L937.2 101C914.3 101 868.7 101 823 101C777.3 101 731.7 101 686 101C640.3 101 594.7 101 548.8 101C503 101 457 101 411.2 101C365.3 101 319.7 101 274 101C228.3 101 182.7 101 137 101C91.3 101 45.7 101 22.8 101L0 101Z" fill="#b78d41"></path><path d="M0 54L22.8 54.5C45.7 55 91.3 56 137 60.5C182.7 65 228.3 73 274 77C319.7 81 365.3 81 411.2 76.3C457 71.7 503 62.3 548.8 61.3C594.7 60.3 640.3 67.7 686 72C731.7 76.3 777.3 77.7 823 73.5C868.7 69.3 914.3 59.7 937.2 54.8L960 50L960 101L937.2 101C914.3 101 868.7 101 823 101C777.3 101 731.7 101 686 101C640.3 101 594.7 101 548.8 101C503 101 457 101 411.2 101C365.3 101 319.7 101 274 101C228.3 101 182.7 101 137 101C91.3 101 45.7 101 22.8 101L0 101Z" fill="#233e37"></path></svg>