<svg id="visual" viewBox="0 0 960 80" width="960" height="80" xmlns="http://www.w3.org/2000/svg" xmlns:xlink="http://www.w3.org/1999/xlink" version="1.1"><rect x="0" y="0" width="960" height="80" fill="#233e37"></rect><path d="M0 56L22.8 54.7C45.7 53.3 91.3 50.7 137 50.8C182.7 51 228.3 54 274 55.3C319.7 56.7 365.3 56.3 411.2 56.5C457 56.7 503 57.3 548.8 56.2C594.7 55 640.3 52 686 51.8C731.7 51.7 777.3 54.3 823 54.5C868.7 54.7 914.3 52.3 937.2 51.2L960 50L960 81L937.2 81C914.3 81 868.7 81 823 81C777.3 81 731.7 81 686 81C640.3 81 594.7 81 548.8 81C503 81 457 81 411.2 81C365.3 81 319.7 81 274 81C228.3 81 182.7 81 137 81C91.3 81 45.7 81 22.8 81L0 81Z" fill="#b78d41" stroke-linecap="round" stroke-linejoin="miter"></path></svg>