<?xml version="1.0" encoding="utf-8"?>
<!-- Generator: Adobe Illustrator 27.9.0, SVG Export Plug-In . SVG Version: 6.00 Build 0)  -->
<svg version="1.1" id="Capa_1" xmlns="http://www.w3.org/2000/svg" xmlns:xlink="http://www.w3.org/1999/xlink" x="0px" y="0px"
	 viewBox="0 0 960 100" style="enable-background:new 0 0 960 100;" xml:space="preserve">
<style type="text/css">
	.st0{fill:#FFFFFF;}
	.st1{display:none;fill:#B78D40;}
	.st2{display:none;fill:#233E37;}
	.st3{display:none;fill:none;}
	.st4{fill:#B78D40;}
	.st5{fill:#233E37;}
</style>
<rect class="st0" width="960" height="100"/>
<path class="st1" d="M930.7,43.1c-0.6-1.9-1.1-3.2-1.7-5.2c-0.2-0.7-0.2-1.5,0.2-2.1l3.3-5.7c0.5-1,0.4-2.2-0.3-3
	c-1.7-2-2.3-2.6-4-4.6c-0.7-0.8-1.9-1.1-2.9-0.7l-6.2,2.4c-0.7,0.3-1.5,0.2-2.1-0.1c-1.8-0.9-3-1.5-4.8-2.5
	c-0.7-0.3-1.2-0.9-1.3-1.6l-1.7-6.4c-0.3-1.1-1.2-1.8-2.3-1.9c-2.6-0.2-3.5-0.3-6.1-0.5c-1.1-0.1-2.1,0.5-2.6,1.5l-2.7,6
	c-0.3,0.7-0.9,1.2-1.6,1.4c-1.9,0.6-3.2,1.1-5.1,1.7c-0.7,0.2-1.5,0.1-2.1-0.2l-5.7-3.3c-1-0.5-2.2-0.4-3,0.3c-2,1.7-2.7,2.3-4.7,4
	c-0.8,0.7-1.1,1.9-0.7,2.9l2.4,6.1c0.3,0.7,0.2,1.5-0.1,2.1c-0.9,1.8-1.5,3-2.4,4.8c-0.3,0.7-0.9,1.2-1.6,1.3l-6.4,1.7
	c-1.1,0.3-1.8,1.2-1.9,2.3c-0.2,2.6-0.3,3.5-0.5,6.1c-0.1,1.1,0.5,2.1,1.5,2.6l6,2.7c0.7,0.3,1.2,0.9,1.4,1.6
	c0.6,1.9,1.1,3.2,1.7,5.2c0.2,0.7,0.2,1.5-0.2,2.1l-3.3,5.7c-0.5,1-0.4,2.2,0.3,3c1.7,2,2.3,2.7,4,4.7c0.7,0.8,1.9,1.1,2.9,0.7
	l6.2-2.4c0.7-0.3,1.5-0.2,2.1,0.1c1.8,0.9,3,1.5,4.8,2.4c0.7,0.3,1.2,0.9,1.3,1.6l1.7,6.4c0.3,1.1,1.2,1.8,2.3,1.9
	c2.6,0.2,3.5,0.3,6.1,0.5c1.1,0.1,2.1-0.5,2.6-1.5l2.7-6c0.3-0.7,0.9-1.2,1.6-1.4c1.9-0.6,3.2-1.1,5.2-1.7c0.7-0.2,1.5-0.2,2.1,0.2
	l5.7,3.3c1,0.6,2.2,0.4,3-0.3c2-1.7,2.7-2.3,4.7-4c0.8-0.7,1.1-1.9,0.7-2.9l-2.4-6.2c-0.3-0.7-0.2-1.5,0.1-2.1
	c0.9-1.8,1.5-3,2.5-4.8c0.3-0.7,0.9-1.2,1.6-1.3l6.4-1.7c1.1-0.3,1.8-1.2,1.9-2.3c0.2-2.6,0.3-3.5,0.5-6.1c0.1-1.1-0.5-2.1-1.5-2.6
	l-6-2.7C931.5,44.4,931,43.8,930.7,43.1L930.7,43.1z M915.5,65.3c-21.8,16.1-46.1-8.2-30-30c0.2-0.2,0.3-0.4,0.6-0.6
	c21.8-16.1,46.1,8.2,30,30C915.9,64.9,915.7,65.1,915.5,65.3z"/>
<path class="st2" d="M66.6,72.3h-11c-0.7,0-1.2-0.6-1.2-1.4V22.4c0-0.5,0.3-1,0.7-1.3l11-5.7c0.8-0.4,1.7,0.3,1.7,1.3v54.3
	C67.8,71.7,67.2,72.3,66.6,72.3L66.6,72.3z"/>
<path class="st2" d="M51.1,71h-11c-0.7,0-1.2-0.5-1.2-1.1V32.2c0-0.4,0.3-0.8,0.7-1l11-4.4c0.8-0.3,1.7,0.2,1.7,1V70
	C52.3,70.6,51.8,71,51.1,71L51.1,71z"/>
<path class="st2" d="M82,71.6H71c-0.7,0-1.2-0.4-1.2-1V35.5c0-0.4,0.3-0.8,0.7-0.9l11-4.1c0.8-0.3,1.7,0.2,1.7,0.9v39.2
	C83.2,71.2,82.6,71.6,82,71.6L82,71.6z"/>
<path class="st3" d="M61,70.2c13.1,0,24.4-7.4,30.1-18.3c-0.2-0.2-0.4-0.5-0.6-0.7c0.2,0.2,0.4,0.5,0.6,0.7c2.4-4.7,3.8-10,3.8-15.7
	C95,17.5,79.8,2.3,61,2.3S27.1,17.5,27.1,36.2c0,6.1,1.6,11.9,4.5,16.8c0.3-0.2,0.5-0.5,0.8-0.8c-0.3,0.2-0.5,0.5-0.8,0.8
	C37.4,63.3,48.4,70.2,61,70.2L61,70.2z"/>
<path class="st2" d="M61,70.2c-12,0-22.5-6.2-28.5-15.6c-0.5-0.8-1.6-0.9-2.3-0.3c-3,2.9-6.1,5.9-9.1,8.8c-0.5,0.5-0.6,1.3-0.2,1.9
	c9,12.5,23.6,20.6,40.1,20.6s31.4-8.2,40.3-20.9c0.4-0.6,0.3-1.4-0.1-1.9c-2.9-3.2-5.8-6.3-8.7-9.5c-0.7-0.7-1.9-0.6-2.4,0.2
	C84.2,63.5,73.4,70.2,61,70.2z"/>
<rect class="st4" width="960" height="8.9"/>
<rect y="91.1" class="st5" width="960" height="8.9"/>
</svg>
