<?xml version="1.0" encoding="UTF-8"?>
<svg id="Capa_1" data-name="Capa 1" xmlns="http://www.w3.org/2000/svg" viewBox="0 0 960 100">
  <defs>
    <style>
      .cls-1 {
        letter-spacing: 0em;
      }

      .cls-2 {
        fill: none;
      }

      .cls-2, .cls-3, .cls-4, .cls-5 {
        stroke-width: 0px;
      }

      .cls-3 {
        fill: #b78d40;
      }

      .cls-6 {
        letter-spacing: 0em;
      }

      .cls-4 {
        fill: #fff;
      }

      .cls-7 {
        letter-spacing: -.03em;
      }

      .cls-8 {
        font-family: Kanit-Medium, Kanit;
        font-size: 40px;
        font-weight: 500;
      }

      .cls-8, .cls-5 {
        fill: #233e37;
      }
    </style>
  </defs>
  <rect class="cls-4" width="960" height="100"/>
  <path class="cls-3" d="m930.7,43.09c-.63-1.91-1.06-3.24-1.68-5.15-.23-.7-.15-1.47.22-2.1l3.28-5.72c.55-.96.43-2.16-.29-2.99-1.71-2-2.28-2.65-3.99-4.65-.72-.84-1.88-1.13-2.91-.74l-6.16,2.36c-.69.26-1.46.22-2.11-.11-1.78-.91-3.04-1.54-4.82-2.45-.66-.33-1.15-.93-1.34-1.64l-1.72-6.36c-.29-1.06-1.22-1.83-2.32-1.92-2.62-.2-3.49-.27-6.11-.47-1.1-.08-2.14.53-2.58,1.54l-2.68,6.02c-.3.67-.87,1.19-1.57,1.41-1.9.63-3.24,1.06-5.14,1.68-.7.23-1.47.15-2.1-.22l-5.72-3.28c-.96-.55-2.16-.43-2.99.29-2,1.71-2.65,2.28-4.65,3.99-.84.72-1.13,1.88-.74,2.91l2.36,6.15c.26.69.22,1.46-.11,2.12-.91,1.78-1.54,3.03-2.44,4.82-.33.66-.93,1.15-1.64,1.34l-6.36,1.72c-1.06.29-1.83,1.22-1.92,2.32-.2,2.62-.27,3.49-.47,6.11-.08,1.1.53,2.14,1.54,2.58l6.02,2.68c.67.3,1.19.87,1.42,1.57.63,1.91,1.06,3.24,1.68,5.15.23.7.15,1.47-.22,2.1l-3.28,5.72c-.55.96-.43,2.16.29,2.99,1.71,2,2.28,2.66,3.99,4.65.72.84,1.88,1.13,2.91.74l6.16-2.36c.69-.26,1.46-.22,2.11.11,1.78.91,3.04,1.54,4.82,2.45.66.33,1.15.93,1.34,1.64l1.72,6.36c.29,1.06,1.22,1.83,2.32,1.92,2.62.2,3.49.27,6.11.47,1.1.08,2.14-.53,2.58-1.54l2.68-6.02c.3-.67.87-1.19,1.57-1.42,1.91-.63,3.24-1.06,5.15-1.68.7-.23,1.47-.15,2.1.22l5.72,3.28c.96.55,2.16.43,2.99-.29,2-1.71,2.66-2.28,4.65-3.99.84-.72,1.13-1.88.74-2.91l-2.36-6.16c-.26-.69-.22-1.46.11-2.11.91-1.78,1.54-3.04,2.45-4.82.33-.66.93-1.15,1.64-1.34l6.36-1.72c1.06-.29,1.83-1.22,1.92-2.32.2-2.62.27-3.49.47-6.11.08-1.1-.53-2.14-1.54-2.58l-6.02-2.68c-.67-.3-1.19-.87-1.42-1.57Zm-15.17,22.18c-21.77,16.14-46.1-8.2-29.96-29.96.16-.21.35-.41.56-.56,21.77-16.14,46.1,8.2,29.96,29.96-.16.21-.35.41-.56.56Z"/>
  <path class="cls-5" d="m66.55,72.34h-11.01c-.66,0-1.2-.62-1.2-1.39V22.35c0-.55.28-1.05.71-1.28l11.02-5.68c.79-.41,1.68.27,1.68,1.28v54.27c0,.77-.54,1.39-1.21,1.39Z"/>
  <path class="cls-5" d="m51.1,71.04h-11.01c-.66,0-1.2-.48-1.2-1.08v-37.71c0-.43.28-.82.71-.99l11.02-4.4c.79-.32,1.68.21,1.68.99v42.11c0,.6-.54,1.08-1.21,1.08Z"/>
  <path class="cls-5" d="m81.99,71.62h-11.01c-.66,0-1.2-.45-1.2-1.01v-35.13c0-.4.28-.76.71-.92l11.02-4.1c.79-.29,1.68.19,1.68.92v39.23c0,.56-.54,1.01-1.21,1.01Z"/>
  <path class="cls-2" d="m61.05,70.16c13.09,0,24.43-7.41,30.09-18.26-.21-.22-.41-.45-.62-.67.21.22.41.45.62.67,2.45-4.69,3.84-10.02,3.84-15.67,0-18.74-15.19-33.94-33.93-33.94S27.11,17.49,27.11,36.23c0,6.12,1.63,11.85,4.46,16.8.26-.25.52-.5.78-.75-.26.25-.52.5-.78.75,5.85,10.23,16.86,17.12,29.48,17.12Z"/>
  <path class="cls-5" d="m61.05,70.16c-11.98,0-22.5-6.21-28.54-15.58-.51-.79-1.61-.9-2.28-.26-3.04,2.93-6.09,5.86-9.13,8.8-.53.51-.62,1.34-.19,1.94,8.97,12.47,23.6,20.59,40.14,20.59s31.39-8.24,40.34-20.87c.41-.57.34-1.36-.13-1.87-2.91-3.17-5.82-6.33-8.73-9.5-.67-.73-1.86-.62-2.37.24-5.93,9.89-16.74,16.51-29.11,16.51Z"/>
  <text class="cls-8" transform="translate(362.54 63.98)"><tspan x="0" y="0">D</tspan><tspan class="cls-1" x="26.24" y="0">e</tspan><tspan x="47.72" y="0">sin</tspan><tspan class="cls-7" x="101.8" y="0">f</tspan><tspan class="cls-6" x="115.24" y="0">ección</tspan></text>
</svg>