<svg id="visual" viewBox="0 0 960 540" width="960" height="540" xmlns="http://www.w3.org/2000/svg" xmlns:xlink="http://www.w3.org/1999/xlink" version="1.1"><rect x="0" y="0" width="960" height="540" fill="#233e37"></rect><defs><linearGradient id="grad1_0" x1="43.8%" y1="0%" x2="100%" y2="100%"><stop offset="14.444444444444446%" stop-color="#233e37" stop-opacity="1"></stop><stop offset="85.55555555555554%" stop-color="#233e37" stop-opacity="1"></stop></linearGradient></defs><defs><linearGradient id="grad2_0" x1="0%" y1="0%" x2="56.3%" y2="100%"><stop offset="14.444444444444446%" stop-color="#233e37" stop-opacity="1"></stop><stop offset="85.55555555555554%" stop-color="#233e37" stop-opacity="1"></stop></linearGradient></defs><g transform="translate(960, 0)"><path d="M0 189C-18.2 168.6 -36.4 148.1 -57.8 139.5C-79.2 130.9 -103.8 134.1 -125.2 125.2C-146.5 116.2 -164.5 95.2 -174.6 72.3C-184.7 49.4 -186.9 24.7 -189 0L0 0Z" fill="#b78d41"></path></g><g transform="translate(0, 540)"><path d="M0 -189C18.9 -170.1 37.8 -151.3 58.9 -142.3C80.1 -133.3 103.4 -134.1 124.5 -124.5C145.5 -114.8 164.2 -94.8 174.6 -72.3C185 -49.8 187 -24.9 189 0L0 0Z" fill="#b78d41"></path></g></svg>