<svg id="visual" viewBox="0 0 960 100" width="960" height="100" xmlns="http://www.w3.org/2000/svg" xmlns:xlink="http://www.w3.org/1999/xlink" version="1.1"><rect x="0" y="0" width="960" height="100" fill="#ffffff"></rect><path d="M0 46L20 44.8C40 43.7 80 41.3 120 42.3C160 43.3 200 47.7 240 49C280 50.3 320 48.7 360 49.3C400 50 440 53 480 55.5C520 58 560 60 600 57C640 54 680 46 720 41.8C760 37.7 800 37.3 840 39.8C880 42.3 920 47.7 940 50.3L960 53L960 0L940 0C920 0 880 0 840 0C800 0 760 0 720 0C680 0 640 0 600 0C560 0 520 0 480 0C440 0 400 0 360 0C320 0 280 0 240 0C200 0 160 0 120 0C80 0 40 0 20 0L0 0Z" fill="#b78d41"></path><path d="M0 32L20 31.5C40 31 80 30 120 30.3C160 30.7 200 32.3 240 31.2C280 30 320 26 360 26.7C400 27.3 440 32.7 480 33.8C520 35 560 32 600 30.2C640 28.3 680 27.7 720 27.2C760 26.7 800 26.3 840 27C880 27.7 920 29.3 940 30.2L960 31L960 0L940 0C920 0 880 0 840 0C800 0 760 0 720 0C680 0 640 0 600 0C560 0 520 0 480 0C440 0 400 0 360 0C320 0 280 0 240 0C200 0 160 0 120 0C80 0 40 0 20 0L0 0Z" fill="#233e37"></path></svg>