<svg id="visual" viewBox="0 0 960 540" width="960" height="540" xmlns="http://www.w3.org/2000/svg" xmlns:xlink="http://www.w3.org/1999/xlink" version="1.1"><rect x="0" y="0" width="960" height="540" fill="#233e37"></rect><g fill="#b78d41"><circle r="59" cx="875" cy="130"></circle><circle r="12" cx="222" cy="298"></circle><circle r="33" cx="618" cy="450"></circle><circle r="51" cx="85" cy="198"></circle><circle r="23" cx="354" cy="363"></circle><circle r="21" cx="612" cy="125"></circle><circle r="55" cx="491" cy="265"></circle><circle r="14" cx="281" cy="173"></circle><circle r="19" cx="667" cy="311"></circle><circle r="38" cx="472" cy="473"></circle><circle r="56" cx="801" cy="468"></circle><circle r="28" cx="450" cy="141"></circle><circle r="17" cx="824" cy="318"></circle><circle r="45" cx="81" cy="342"></circle><circle r="41" cx="263" cy="445"></circle><circle r="24" cx="754" cy="161"></circle><circle r="16" cx="73" cy="468"></circle><circle r="29" cx="192" cy="82"></circle><circle r="32" cx="348" cy="69"></circle></g></svg>