<svg id="visual" viewBox="0 0 960 200" width="960" height="200" xmlns="http://www.w3.org/2000/svg" xmlns:xlink="http://www.w3.org/1999/xlink" version="1.1"><rect x="0" y="0" width="960" height="200" fill="#233e37"></rect><defs><linearGradient id="grad1_0" x1="79.2%" y1="0%" x2="100%" y2="100%"><stop offset="-46%" stop-color="#b78d41" stop-opacity="1"></stop><stop offset="146%" stop-color="#b78d41" stop-opacity="1"></stop></linearGradient></defs><defs><linearGradient id="grad1_1" x1="79.2%" y1="0%" x2="100%" y2="100%"><stop offset="-46%" stop-color="#b78d41" stop-opacity="1"></stop><stop offset="146%" stop-color="#70793b" stop-opacity="1"></stop></linearGradient></defs><defs><linearGradient id="grad1_2" x1="79.2%" y1="0%" x2="100%" y2="100%"><stop offset="-46%" stop-color="#3d5d3e" stop-opacity="1"></stop><stop offset="146%" stop-color="#70793b" stop-opacity="1"></stop></linearGradient></defs><defs><linearGradient id="grad1_3" x1="79.2%" y1="0%" x2="100%" y2="100%"><stop offset="-46%" stop-color="#3d5d3e" stop-opacity="1"></stop><stop offset="146%" stop-color="#233e37" stop-opacity="1"></stop></linearGradient></defs><defs><linearGradient id="grad2_0" x1="0%" y1="0%" x2="20.8%" y2="100%"><stop offset="-46%" stop-color="#b78d41" stop-opacity="1"></stop><stop offset="146%" stop-color="#b78d41" stop-opacity="1"></stop></linearGradient></defs><defs><linearGradient id="grad2_1" x1="0%" y1="0%" x2="20.8%" y2="100%"><stop offset="-46%" stop-color="#70793b" stop-opacity="1"></stop><stop offset="146%" stop-color="#b78d41" stop-opacity="1"></stop></linearGradient></defs><defs><linearGradient id="grad2_2" x1="0%" y1="0%" x2="20.8%" y2="100%"><stop offset="-46%" stop-color="#70793b" stop-opacity="1"></stop><stop offset="146%" stop-color="#3d5d3e" stop-opacity="1"></stop></linearGradient></defs><defs><linearGradient id="grad2_3" x1="0%" y1="0%" x2="20.8%" y2="100%"><stop offset="-46%" stop-color="#233e37" stop-opacity="1"></stop><stop offset="146%" stop-color="#3d5d3e" stop-opacity="1"></stop></linearGradient></defs><g transform="translate(960, 0)"><path d="M0 200C-38.4 196.7 -76.8 193.5 -100 173.2C-123.2 152.9 -131.3 115.7 -145.5 84C-159.6 52.3 -179.8 26.2 -200 0L0 0Z" fill="#2c4e3d"></path><path d="M0 150C-28.8 147.5 -57.6 145.1 -75 129.9C-92.4 114.7 -98.5 86.8 -109.1 63C-119.7 39.2 -134.9 19.6 -150 0L0 0Z" fill="#546c3d"></path><path d="M0 100C-19.2 98.4 -38.4 96.7 -50 86.6C-61.6 76.5 -65.7 57.8 -72.7 42C-79.8 26.2 -89.9 13.1 -100 0L0 0Z" fill="#92843b"></path><path d="M0 50C-9.6 49.2 -19.2 48.4 -25 43.3C-30.8 38.2 -32.8 28.9 -36.4 21C-39.9 13.1 -45 6.5 -50 0L0 0Z" fill="#b78d41"></path></g><g transform="translate(0, 200)"><path d="M0 -200C39.2 -197.2 78.4 -194.4 100 -173.2C121.6 -152 125.7 -112.4 139.4 -80.5C153.2 -48.6 176.6 -24.3 200 0L0 0Z" fill="#2c4e3d"></path><path d="M0 -150C29.4 -147.9 58.8 -145.8 75 -129.9C91.2 -114 94.3 -84.3 104.6 -60.4C114.9 -36.4 132.4 -18.2 150 0L0 0Z" fill="#546c3d"></path><path d="M0 -100C19.6 -98.6 39.2 -97.2 50 -86.6C60.8 -76 62.8 -56.2 69.7 -40.3C76.6 -24.3 88.3 -12.1 100 0L0 0Z" fill="#92843b"></path><path d="M0 -50C9.8 -49.3 19.6 -48.6 25 -43.3C30.4 -38 31.4 -28.1 34.9 -20.1C38.3 -12.1 44.1 -6.1 50 0L0 0Z" fill="#b78d41"></path></g></svg>